Coordinates
version=1
nRows=21
nColumns=12
inDegrees=yes

Units are S.I. units (second, meters, Newtons, ...)
Angles are in degrees

endheader
time	SC_y	SC_z	SC_x	AC_y	AC_z	AC_x	GH_y	GH_z	GH_yy	EL_x	PS_y
       0.0              -45.51          24.04           54.3          30.68          8.998         -14.72         -32.13          35.04         -22.99          92.95          120.1
 0.0002252              -45.51          24.04           54.3          30.68          8.994         -14.72         -32.11          35.04         -22.99          92.95          120.1
 0.0004505              -45.51          24.03          54.29          30.69           8.99         -14.72         -32.08          35.05         -22.98          92.96          120.1
 0.0006757              -45.52          24.03          54.28          30.69          8.986         -14.72         -32.05          35.05         -22.98          92.96          120.1
  0.000901              -45.52          24.03          54.28          30.69          8.981         -14.72         -32.02          35.05         -22.98          92.97          120.1
  0.001126              -45.52          24.02          54.27           30.7          8.977         -14.71         -31.99          35.06         -22.97          92.97          120.1
  0.001351              -45.52          24.02          54.26           30.7          8.971         -14.71         -31.95          35.06         -22.97          92.98          120.1
  0.001577              -45.52          24.01          54.25          30.71          8.966         -14.71         -31.92          35.06         -22.96          92.98          120.1
  0.001802              -45.52          24.01          54.24          30.71           8.96          -14.7         -31.88          35.07         -22.95          92.99          120.0
  0.002027              -45.52           24.0          54.23          30.72          8.954          -14.7         -31.83          35.07         -22.95           93.0          120.0
  0.002252              -45.52          23.99          54.22          30.73          8.947          -14.7         -31.79          35.08         -22.94          93.01          120.0
  0.002478              -45.52          23.99          54.21          30.73           8.94         -14.69         -31.74          35.08         -22.93          93.01          120.0
  0.002703              -45.52          23.98           54.2          30.74          8.932         -14.69         -31.68          35.09         -22.93          93.02          120.0
  0.002928              -45.53          23.97          54.19          30.75          8.924         -14.68         -31.63          35.09         -22.92          93.03          119.9
  0.003153              -45.53          23.96          54.17          30.76          8.914         -14.68         -31.56           35.1         -22.91          93.04          119.9
  0.003379              -45.53          23.95          54.16          30.77          8.904         -14.67          -31.5          35.11          -22.9          93.06          119.9
  0.003604              -45.53          23.94          54.14          30.78          8.894         -14.67         -31.42          35.11         -22.89          93.07          119.9
  0.003829              -45.53          23.93          54.12          30.79          8.882         -14.66         -31.34          35.12         -22.87          93.08          119.8
  0.004054              -45.53          23.92           54.1           30.8          8.869         -14.66         -31.25          35.13         -22.86           93.1          119.8
   0.00428              -45.54           23.9          54.08          30.81          8.855         -14.65         -31.16          35.14         -22.85          93.11          119.8
  0.004505              -45.54          23.89          54.06          30.83           8.84         -14.64         -31.05          35.15         -22.83          93.13          119.7
